<svg xmlns="http://www.w3.org/2000/svg" width="230" height="40" fill="none" viewBox="0 0 230 40">
    <path fill="#fff" fill-rule="evenodd" d="M64.305 7.861V4.466h10.956v1.711l3.39-.733v-.38c0-1.386-.325-2.337-1.003-2.799-.651-.461-1.736-.706-3.2-.706h-9.519c-.787 0-1.464.054-2.007.163-.542.109-.976.326-1.301.598-.326.299-.57.679-.706 1.168-.135.489-.216 1.114-.216 1.874v1.793c0 .76.08 1.385.216 1.874.136.517.38.897.706 1.168.325.3.759.49 1.301.598.57.109 1.22.163 2.007.163h10.413v3.722H63.547v-1.902l-3.526.652v.489c0 .76.082 1.385.217 1.847.136.462.38.87.706 1.141.325.272.759.49 1.301.598.516.108 1.193.163 2.007.163h10.468c.786 0 1.464-.055 2.007-.163.542-.109.976-.3 1.301-.598.299-.299.543-.679.678-1.168.136-.489.217-1.114.217-1.874v-2.2c0-.761-.081-1.386-.217-1.875-.135-.516-.352-.896-.678-1.168-.325-.299-.76-.49-1.301-.598-.543-.108-1.194-.163-1.98-.163h-10.44zm36.475 6.846H89.607V1.614h-3.905v12.278c0 .76.082 1.358.217 1.847.136.462.353.842.678 1.141.326.272.732.49 1.275.598.515.109 1.193.163 2.006.163h10.631c.759 0 1.437-.054 1.98-.163.542-.109.976-.326 1.301-.598.326-.271.57-.652.705-1.14.136-.462.217-1.087.217-1.848V1.614h-3.932v13.093zm11.064-13.12h14.455c1.301 0 2.251.244 2.847.706.597.462.922 1.276.922 2.417V8.27c0 1.14-.298 1.956-.922 2.418-.596.461-1.546.706-2.847.706h-10.604v6.275h-3.878V1.586h.027zm3.878 2.77v4.265h8.922c.57 0 1.031-.081 1.329-.244.299-.163.461-.517.461-1.06V5.634c0-.543-.162-.87-.461-1.032-.298-.163-.759-.245-1.329-.245h-8.922zm34.414-2.77h-14.482v16.108h3.878V11.61h3.688l6.726 6.085h5.613l-7.62-6.085h2.197c1.301 0 2.251-.244 2.847-.706.624-.49.922-1.277.922-2.39V4.71c0-1.14-.325-1.955-.922-2.417-.596-.462-1.546-.707-2.847-.707zm-10.577 7.225V4.384h8.922c.57 0 1.031.082 1.329.245.299.163.461.489.461 1.032v1.874c0 .517-.162.87-.461 1.033-.298.163-.759.244-1.329.244h-8.922zm20.8-7.226h17.248V4.44h-13.288v3.504h7.756v2.77h-7.756v3.994h13.478v2.96h-17.438V1.588zm26.252 0h-3.146v16.082h3.146V6.856l7.24 8.856h.76l7.186-9.127v11.083h3.634V1.586h-3.146l-7.81 9.535-7.864-9.535zm25.951 0h17.248V4.44h-13.288v3.504h7.756v2.77h-7.756v3.994H230v2.96h-17.438V1.588zM98.718 23.511H81.471v16.082h17.437v-2.961H85.43v-3.993h7.756v-2.771H85.43v-3.505h13.288v-2.852zm-34.25.055h-3.933V39.62h16.543v-2.96h-12.61V23.565zm40.081-.055h2.685l13.64 10.676V23.511h3.526v16.082h-2.712l-13.614-10.839v10.839h-3.525V23.51zm37.858 0h-10.821v16.082h9.844c7.078 0 10.631-2.69 10.631-8.095 0-2.5-.814-4.455-2.441-5.868-1.627-1.412-4.013-2.119-7.213-2.119zm1.437 12.903c-.922.136-2.007.218-3.254.218v.027h-5.072V26.418h6.916c1.871 0 3.281.38 4.203 1.195.922.815 1.383 2.038 1.383 3.722 0 1.06-.163 1.928-.461 2.608-.298.679-.759 1.222-1.383 1.63-.624.407-1.383.678-2.332.841zm14.102-12.903h3.905v16.082h-3.905V23.51zm13.721 0h-2.684V39.62h3.525V28.78l13.614 10.812h2.711V23.51h-3.525v10.676l-13.641-10.676zm27.878 2.988V36.55h12.231v-3.422h-6.373v-2.853h10.224v5.542c0 .76-.082 1.385-.217 1.874-.136.49-.38.87-.678 1.168-.326.3-.76.49-1.302.598-.542.109-1.22.163-1.98.163h-11.607c-.813 0-1.491-.054-2.006-.163-.516-.109-.949-.326-1.275-.598-.325-.299-.542-.679-.678-1.168-.135-.489-.217-1.114-.217-1.874v-8.503c0-.76.082-1.385.217-1.874.136-.489.38-.87.705-1.168.326-.272.76-.49 1.302-.598.542-.108 1.193-.163 1.98-.163h11.606c1.519 0 2.604.245 3.227.734.624.489.95 1.44.95 2.88v.407l-3.824.652v-1.685h-12.285z" clip-rule="evenodd"/>
    <path fill="#E72221" fill-rule="evenodd" d="M9.932 33.458H8.78V20.374H.712L27.402 0l26.87 20.373H13.186v8.67h25.92v4.415H9.932zm5.56-10.775h30.327V40H8.779v-4.414h32.633V27.12h-25.92v-4.437z" clip-rule="evenodd"/>
</svg>
